STARTFONT 2.1
FONT -Adobe-ITC Bookman-Demi-R-Normal--11-80-100-100-P-65-ISO8859-1
SIZE 8 100 100
FONTBOUNDINGBOX 15 11 -1 -3

STARTPROPERTIES 26
_DEC_DEVICE_FONTNAMES "PS=Bookman-Demi"
FONTNAME_REGISTRY ""
FAMILY_NAME "ITC Bookman"
FOUNDRY "Adobe"
WEIGHT_NAME "Demi"
SLANT "R"
SETWIDTH_NAME "Normal"
ADD_STYLE_NAME ""
PIXEL_SIZE 11
POINT_SIZE 80
RESOLUTION_X 100
RESOLUTION_Y 100
SPACING "P"
AVERAGE_WIDTH 65
CHARSET_REGISTRY "ISO8859"
CHARSET_ENCODING "1"
CHARSET_COLLECTIONS "ASCII ISO8859-1 ADOBE-STANDARD"
FULL_NAME "ITC Bookman Demi"
COPYRIGHT "Copyright (c) 1991 Adobe Systems, Inc."
CAP_HEIGHT 7
X_HEIGHT 5
WEIGHT 10
QUAD_WIDTH 8
DEFAULT_CHAR 0
FONT_DESCENT 3
FONT_ASCENT 8
ENDPROPERTIES

CHARS 190

STARTCHAR space
ENCODING 32
SWIDTH 399 0
DWIDTH 4 0
BBX 1 1 0 0
BITMAP
00
ENDCHAR

STARTCHAR exclam
ENCODING 33
SWIDTH 365 0
DWIDTH 4 0
BBX 2 7 1 0
BITMAP
C0
C0
C0
C0
00
C0
C0
ENDCHAR

STARTCHAR quotedbl
ENCODING 34
SWIDTH 431 0
DWIDTH 5 0
BBX 3 3 1 4
BITMAP
A0
A0
A0
ENDCHAR

STARTCHAR numbersign
ENCODING 35
SWIDTH 647 0
DWIDTH 7 0
BBX 7 7 0 0
BITMAP
14
14
7E
28
FC
50
50
ENDCHAR

STARTCHAR dollar
ENCODING 36
SWIDTH 667 0
DWIDTH 7 0
BBX 5 10 1 -2
BITMAP
20
20
70
88
E0
38
88
70
20
20
ENDCHAR

STARTCHAR percent
ENCODING 37
SWIDTH 936 0
DWIDTH 9 0
BBX 9 7 0 0
BITMAP
6200
9400
9400
6B00
1480
1480
2300
ENDCHAR

STARTCHAR ampersand
ENCODING 38
SWIDTH 792 0
DWIDTH 9 0
BBX 8 7 0 0
BITMAP
38
68
3B
7A
DC
CE
7B
ENDCHAR

STARTCHAR quoteright
ENCODING 39
SWIDTH 324 0
DWIDTH 4 0
BBX 2 3 1 4
BITMAP
C0
40
80
ENDCHAR

STARTCHAR parenleft
ENCODING 40
SWIDTH 310 0
DWIDTH 4 0
BBX 3 9 0 -2
BITMAP
20
60
40
C0
C0
C0
40
60
20
ENDCHAR

STARTCHAR parenright
ENCODING 41
SWIDTH 310 0
DWIDTH 4 0
BBX 3 9 0 -2
BITMAP
80
C0
40
60
60
60
40
C0
80
ENDCHAR

STARTCHAR asterisk
ENCODING 42
SWIDTH 466 0
DWIDTH 6 0
BBX 5 5 0 2
BITMAP
20
F8
70
F8
20
ENDCHAR

STARTCHAR plus
ENCODING 43
SWIDTH 620 0
DWIDTH 6 0
BBX 5 5 0 0
BITMAP
20
20
F8
20
20
ENDCHAR

STARTCHAR comma
ENCODING 44
SWIDTH 342 0
DWIDTH 4 0
BBX 3 3 0 -1
BITMAP
60
60
C0
ENDCHAR

STARTCHAR minus
ENCODING 45
SWIDTH 606 0
DWIDTH 6 0
BBX 5 1 0 2
BITMAP
F8
ENDCHAR

STARTCHAR period
ENCODING 46
SWIDTH 346 0
DWIDTH 4 0
BBX 2 2 1 0
BITMAP
C0
C0
ENDCHAR

STARTCHAR slash
ENCODING 47
SWIDTH 380 0
DWIDTH 6 0
BBX 5 9 0 -2
BITMAP
08
18
10
30
20
60
40
C0
80
ENDCHAR

STARTCHAR zero
ENCODING 48
SWIDTH 667 0
DWIDTH 7 0
BBX 6 7 0 0
BITMAP
78
CC
CC
CC
CC
CC
78
ENDCHAR

STARTCHAR one
ENCODING 49
SWIDTH 667 0
DWIDTH 7 0
BBX 4 7 1 0
BITMAP
60
E0
60
60
60
60
F0
ENDCHAR

STARTCHAR two
ENCODING 50
SWIDTH 667 0
DWIDTH 7 0
BBX 6 7 0 0
BITMAP
78
CC
CC
18
60
CC
F8
ENDCHAR

STARTCHAR three
ENCODING 51
SWIDTH 667 0
DWIDTH 7 0
BBX 6 7 0 0
BITMAP
78
CC
CC
18
CC
CC
78
ENDCHAR

STARTCHAR four
ENCODING 52
SWIDTH 667 0
DWIDTH 7 0
BBX 6 7 0 0
BITMAP
18
38
58
D8
FC
18
3C
ENDCHAR

STARTCHAR five
ENCODING 53
SWIDTH 667 0
DWIDTH 7 0
BBX 6 7 0 0
BITMAP
F8
C0
F8
0C
CC
CC
78
ENDCHAR

STARTCHAR six
ENCODING 54
SWIDTH 667 0
DWIDTH 7 0
BBX 6 7 0 0
BITMAP
78
CC
C0
F8
CC
CC
78
ENDCHAR

STARTCHAR seven
ENCODING 55
SWIDTH 667 0
DWIDTH 7 0
BBX 6 7 0 0
BITMAP
FC
CC
18
30
70
60
60
ENDCHAR

STARTCHAR eight
ENCODING 56
SWIDTH 667 0
DWIDTH 7 0
BBX 6 7 0 0
BITMAP
78
CC
EC
78
DC
CC
78
ENDCHAR

STARTCHAR nine
ENCODING 57
SWIDTH 667 0
DWIDTH 7 0
BBX 6 7 0 0
BITMAP
78
CC
CC
7C
0C
CC
78
ENDCHAR

STARTCHAR colon
ENCODING 58
SWIDTH 346 0
DWIDTH 4 0
BBX 2 5 1 0
BITMAP
C0
C0
00
C0
C0
ENDCHAR

STARTCHAR semicolon
ENCODING 59
SWIDTH 348 0
DWIDTH 4 0
BBX 3 6 0 -1
BITMAP
60
60
00
60
60
C0
ENDCHAR

STARTCHAR less
ENCODING 60
SWIDTH 620 0
DWIDTH 6 0
BBX 5 5 0 0
BITMAP
18
60
80
60
18
ENDCHAR

STARTCHAR equal
ENCODING 61
SWIDTH 620 0
DWIDTH 6 0
BBX 5 3 0 1
BITMAP
F8
00
F8
ENDCHAR

STARTCHAR greater
ENCODING 62
SWIDTH 620 0
DWIDTH 6 0
BBX 5 5 0 0
BITMAP
C0
30
08
30
C0
ENDCHAR

STARTCHAR question
ENCODING 63
SWIDTH 669 0
DWIDTH 8 0
BBX 6 7 1 0
BITMAP
78
CC
18
30
00
30
30
ENDCHAR

STARTCHAR at
ENCODING 64
SWIDTH 819 0
DWIDTH 8 0
BBX 7 7 0 0
BITMAP
38
44
9A
AA
BC
42
3C
ENDCHAR

STARTCHAR A
ENCODING 65
SWIDTH 729 0
DWIDTH 7 0
BBX 8 7 -1 0
BITMAP
18
18
3C
2C
7E
46
EF
ENDCHAR

STARTCHAR B
ENCODING 66
SWIDTH 720 0
DWIDTH 8 0
BBX 7 7 0 0
BITMAP
FC
66
66
7C
66
66
FC
ENDCHAR

STARTCHAR C
ENCODING 67
SWIDTH 731 0
DWIDTH 8 0
BBX 7 7 0 0
BITMAP
7C
C6
C0
C0
C0
C6
7C
ENDCHAR

STARTCHAR D
ENCODING 68
SWIDTH 782 0
DWIDTH 9 0
BBX 8 7 0 0
BITMAP
FC
67
63
63
63
67
FC
ENDCHAR

STARTCHAR E
ENCODING 69
SWIDTH 724 0
DWIDTH 7 0
BBX 7 7 0 0
BITMAP
FC
66
68
78
68
66
FC
ENDCHAR

STARTCHAR F
ENCODING 70
SWIDTH 687 0
DWIDTH 7 0
BBX 7 7 0 0
BITMAP
FC
66
68
78
68
60
F0
ENDCHAR

STARTCHAR G
ENCODING 71
SWIDTH 780 0
DWIDTH 8 0
BBX 8 7 0 0
BITMAP
7C
C6
C0
CF
C6
C6
7C
ENDCHAR

STARTCHAR H
ENCODING 72
SWIDTH 820 0
DWIDTH 8 0
BBX 9 7 -1 0
BITMAP
F780
6300
6300
7F00
6300
6300
F780
ENDCHAR

STARTCHAR I
ENCODING 73
SWIDTH 399 0
DWIDTH 4 0
BBX 4 7 0 0
BITMAP
F0
60
60
60
60
60
F0
ENDCHAR

STARTCHAR J
ENCODING 74
SWIDTH 642 0
DWIDTH 6 0
BBX 6 7 0 0
BITMAP
3C
18
18
18
D8
D8
70
ENDCHAR

STARTCHAR K
ENCODING 75
SWIDTH 790 0
DWIDTH 8 0
BBX 8 7 0 0
BITMAP
FE
6C
78
78
6C
6E
F7
ENDCHAR

STARTCHAR L
ENCODING 76
SWIDTH 641 0
DWIDTH 7 0
BBX 7 7 0 0
BITMAP
F0
60
60
60
66
6C
FC
ENDCHAR

STARTCHAR M
ENCODING 77
SWIDTH 945 0
DWIDTH 10 0
BBX 10 7 0 0
BITMAP
F1C0
7180
7B80
5B80
5D80
4D80
EDC0
ENDCHAR

STARTCHAR N
ENCODING 78
SWIDTH 745 0
DWIDTH 8 0
BBX 8 7 0 0
BITMAP
F7
72
5A
5A
4E
4E
E6
ENDCHAR

STARTCHAR O
ENCODING 79
SWIDTH 803 0
DWIDTH 8 0
BBX 7 7 0 0
BITMAP
7C
C6
C6
C6
C6
C6
7C
ENDCHAR

STARTCHAR P
ENCODING 80
SWIDTH 659 0
DWIDTH 7 0
BBX 7 7 0 0
BITMAP
FC
66
66
7C
60
60
F0
ENDCHAR

STARTCHAR Q
ENCODING 81
SWIDTH 790 0
DWIDTH 8 0
BBX 7 9 0 -2
BITMAP
7C
C6
C6
C6
CE
D6
7C
06
7C
ENDCHAR

STARTCHAR R
ENCODING 82
SWIDTH 776 0
DWIDTH 8 0
BBX 8 7 0 0
BITMAP
FC
66
66
7C
78
6C
F7
ENDCHAR

STARTCHAR S
ENCODING 83
SWIDTH 660 0
DWIDTH 7 0
BBX 6 7 0 0
BITMAP
78
CC
E0
78
0C
EC
F8
ENDCHAR

STARTCHAR T
ENCODING 84
SWIDTH 694 0
DWIDTH 8 0
BBX 8 7 0 0
BITMAP
7E
DB
18
18
18
18
3C
ENDCHAR

STARTCHAR U
ENCODING 85
SWIDTH 737 0
DWIDTH 8 0
BBX 8 7 0 0
BITMAP
F7
66
66
66
66
66
3C
ENDCHAR

STARTCHAR V
ENCODING 86
SWIDTH 696 0
DWIDTH 7 0
BBX 8 7 -1 0
BITMAP
FF
66
76
34
3C
18
18
ENDCHAR

STARTCHAR W
ENCODING 87
SWIDTH 929 0
DWIDTH 10 0
BBX 10 7 0 0
BITMAP
EDC0
6D80
6D80
6D80
3F00
3300
3300
ENDCHAR

STARTCHAR X
ENCODING 88
SWIDTH 769 0
DWIDTH 8 0
BBX 8 7 0 0
BITMAP
FF
66
3C
18
3C
66
FF
ENDCHAR

STARTCHAR Y
ENCODING 89
SWIDTH 683 0
DWIDTH 7 0
BBX 8 7 -1 0
BITMAP
E7
66
3C
18
18
18
3C
ENDCHAR

STARTCHAR Z
ENCODING 90
SWIDTH 636 0
DWIDTH 7 0
BBX 6 7 0 0
BITMAP
7C
DC
18
30
64
EC
FC
ENDCHAR

STARTCHAR bracketleft
ENCODING 91
SWIDTH 306 0
DWIDTH 5 0
BBX 3 9 1 -2
BITMAP
E0
C0
C0
C0
C0
C0
C0
C0
E0
ENDCHAR

STARTCHAR backslash
ENCODING 92
SWIDTH 593 0
DWIDTH 6 0
BBX 4 7 1 0
BITMAP
80
C0
40
60
20
30
10
ENDCHAR

STARTCHAR bracketright
ENCODING 93
SWIDTH 306 0
DWIDTH 4 0
BBX 3 9 0 -2
BITMAP
E0
60
60
60
60
60
60
60
E0
ENDCHAR

STARTCHAR asciicircum
ENCODING 94
SWIDTH 620 0
DWIDTH 6 0
BBX 5 4 0 3
BITMAP
20
70
D8
88
ENDCHAR

STARTCHAR underscore
ENCODING 95
SWIDTH 902 0
DWIDTH 5 0
BBX 5 1 0 -2
BITMAP
F8
ENDCHAR

STARTCHAR quoteleft
ENCODING 96
SWIDTH 324 0
DWIDTH 4 0
BBX 2 3 1 4
BITMAP
40
80
C0
ENDCHAR

STARTCHAR a
ENCODING 97
SWIDTH 581 0
DWIDTH 6 0
BBX 6 5 0 0
BITMAP
70
D8
78
D8
7C
ENDCHAR

STARTCHAR b
ENCODING 98
SWIDTH 601 0
DWIDTH 7 0
BBX 7 7 -1 0
BITMAP
E0
60
6C
76
66
66
7C
ENDCHAR

STARTCHAR c
ENCODING 99
SWIDTH 570 0
DWIDTH 6 0
BBX 5 5 0 0
BITMAP
70
D8
C0
D8
70
ENDCHAR

STARTCHAR d
ENCODING 100
SWIDTH 643 0
DWIDTH 7 0
BBX 7 7 0 0
BITMAP
1C
0C
6C
DC
CC
CC
7E
ENDCHAR

STARTCHAR e
ENCODING 101
SWIDTH 568 0
DWIDTH 6 0
BBX 5 5 0 0
BITMAP
70
D8
F8
C0
78
ENDCHAR

STARTCHAR f
ENCODING 102
SWIDTH 385 0
DWIDTH 4 0
BBX 5 7 0 0
BITMAP
38
60
F0
60
60
60
F0
ENDCHAR

STARTCHAR g
ENCODING 103
SWIDTH 574 0
DWIDTH 6 0
BBX 6 9 0 -3
BITMAP
0C
78
D8
D8
70
60
F8
CC
78
ENDCHAR

STARTCHAR h
ENCODING 104
SWIDTH 668 0
DWIDTH 7 0
BBX 7 7 0 0
BITMAP
E0
60
78
6C
6C
6C
FE
ENDCHAR

STARTCHAR i
ENCODING 105
SWIDTH 355 0
DWIDTH 4 0
BBX 4 7 0 0
BITMAP
60
00
E0
60
60
60
F0
ENDCHAR

STARTCHAR j
ENCODING 106
SWIDTH 345 0
DWIDTH 4 0
BBX 4 10 -1 -3
BITMAP
30
00
70
30
30
30
30
30
F0
60
ENDCHAR

STARTCHAR k
ENCODING 107
SWIDTH 645 0
DWIDTH 7 0
BBX 7 7 0 0
BITMAP
E0
60
6E
78
78
6C
F6
ENDCHAR

STARTCHAR l
ENCODING 108
SWIDTH 343 0
DWIDTH 4 0
BBX 4 7 0 0
BITMAP
E0
60
60
60
60
60
F0
ENDCHAR

STARTCHAR m
ENCODING 109
SWIDTH 973 0
DWIDTH 10 0
BBX 10 5 0 0
BITMAP
FF00
6D80
6D80
6D80
FFC0
ENDCHAR

STARTCHAR n
ENCODING 110
SWIDTH 672 0
DWIDTH 7 0
BBX 7 5 0 0
BITMAP
F8
6C
6C
6C
EE
ENDCHAR

STARTCHAR o
ENCODING 111
SWIDTH 616 0
DWIDTH 6 0
BBX 6 5 0 0
BITMAP
78
CC
CC
CC
78
ENDCHAR

STARTCHAR p
ENCODING 112
SWIDTH 639 0
DWIDTH 6 0
BBX 7 8 -1 -3
BITMAP
EC
76
66
66
7C
60
60
F0
ENDCHAR

STARTCHAR q
ENCODING 113
SWIDTH 626 0
DWIDTH 7 0
BBX 7 8 0 -3
BITMAP
6C
DC
CC
CC
7C
0C
0C
1E
ENDCHAR

STARTCHAR r
ENCODING 114
SWIDTH 462 0
DWIDTH 5 0
BBX 5 5 0 0
BITMAP
D8
78
60
60
F0
ENDCHAR

STARTCHAR s
ENCODING 115
SWIDTH 512 0
DWIDTH 5 0
BBX 5 5 0 0
BITMAP
F8
C0
70
18
F8
ENDCHAR

STARTCHAR t
ENCODING 116
SWIDTH 464 0
DWIDTH 5 0
BBX 5 7 0 0
BITMAP
60
60
F8
60
60
60
38
ENDCHAR

STARTCHAR u
ENCODING 117
SWIDTH 660 0
DWIDTH 7 0
BBX 7 5 0 0
BITMAP
FC
6C
6C
6C
3E
ENDCHAR

STARTCHAR v
ENCODING 118
SWIDTH 585 0
DWIDTH 5 0
BBX 6 5 -1 0
BITMAP
EC
68
78
30
30
ENDCHAR

STARTCHAR w
ENCODING 119
SWIDTH 803 0
DWIDTH 7 0
BBX 8 5 -1 0
BITMAP
DB
6A
6E
3C
34
ENDCHAR

STARTCHAR x
ENCODING 120
SWIDTH 597 0
DWIDTH 6 0
BBX 6 5 0 0
BITMAP
EC
78
30
78
DC
ENDCHAR

STARTCHAR y
ENCODING 121
SWIDTH 607 0
DWIDTH 6 0
BBX 7 8 -1 -3
BITMAP
EE
6C
68
38
30
30
B0
E0
ENDCHAR

STARTCHAR z
ENCODING 122
SWIDTH 565 0
DWIDTH 6 0
BBX 5 5 0 0
BITMAP
F8
B0
60
D8
F8
ENDCHAR

STARTCHAR braceleft
ENCODING 123
SWIDTH 314 0
DWIDTH 5 0
BBX 4 9 0 -2
BITMAP
30
60
60
60
C0
60
60
60
30
ENDCHAR

STARTCHAR bar
ENCODING 124
SWIDTH 620 0
DWIDTH 6 0
BBX 1 7 2 0
BITMAP
80
80
80
80
80
80
80
ENDCHAR

STARTCHAR braceright
ENCODING 125
SWIDTH 314 0
DWIDTH 5 0
BBX 4 9 0 -2
BITMAP
C0
60
60
60
30
60
60
60
C0
ENDCHAR

STARTCHAR asciitilde
ENCODING 126
SWIDTH 620 0
DWIDTH 6 0
BBX 5 2 0 2
BITMAP
68
B0
ENDCHAR

STARTCHAR exclamdown
ENCODING 161
SWIDTH 365 0
DWIDTH 4 0
BBX 2 8 1 -3
BITMAP
C0
C0
00
C0
C0
C0
C0
C0
ENDCHAR

STARTCHAR cent
ENCODING 162
SWIDTH 667 0
DWIDTH 7 0
BBX 4 8 1 -1
BITMAP
20
20
70
90
80
70
20
20
ENDCHAR

STARTCHAR sterling
ENCODING 163
SWIDTH 667 0
DWIDTH 7 0
BBX 6 7 0 0
BITMAP
3C
6C
60
F0
60
EC
DC
ENDCHAR

STARTCHAR currency
ENCODING 164
SWIDTH 511 0
DWIDTH 7 0
BBX 6 6 0 0
BITMAP
84
78
48
48
78
84
ENDCHAR

STARTCHAR yen
ENCODING 165
SWIDTH 667 0
DWIDTH 7 0
BBX 6 7 0 0
BITMAP
CC
68
30
FC
30
FC
30
ENDCHAR

STARTCHAR brokenbar
ENCODING 166
SWIDTH 620 0
DWIDTH 6 0
BBX 1 7 2 0
BITMAP
80
80
00
00
80
80
80
ENDCHAR

STARTCHAR section
ENCODING 167
SWIDTH 595 0
DWIDTH 7 0
BBX 5 9 1 -2
BITMAP
70
D8
60
F0
D8
78
30
D8
70
ENDCHAR

STARTCHAR dieresis
ENCODING 168
SWIDTH 510 0
DWIDTH 5 0
BBX 3 2 1 6
BITMAP
A0
A0
ENDCHAR

STARTCHAR copyright
ENCODING 169
SWIDTH 747 0
DWIDTH 9 0
BBX 7 7 1 0
BITMAP
7C
C6
9A
A2
9A
C6
7C
ENDCHAR

STARTCHAR ordfeminine
ENCODING 170
SWIDTH 400 0
DWIDTH 6 0
BBX 4 5 1 2
BITMAP
E0
20
B0
00
F0
ENDCHAR

STARTCHAR guillemotleft
ENCODING 171
SWIDTH 394 0
DWIDTH 7 0
BBX 6 4 0 0
BITMAP
6C
D8
D8
6C
ENDCHAR

STARTCHAR logicalnot
ENCODING 172
SWIDTH 606 0
DWIDTH 6 0
BBX 5 3 0 1
BITMAP
F8
08
08
ENDCHAR

STARTCHAR hyphen
ENCODING 173
SWIDTH 360 0
DWIDTH 4 0
BBX 3 1 0 2
BITMAP
E0
ENDCHAR

STARTCHAR registered
ENCODING 174
SWIDTH 747 0
DWIDTH 9 0
BBX 7 7 1 0
BITMAP
7C
C6
BA
B2
AA
C6
7C
ENDCHAR

STARTCHAR macron
ENCODING 175
SWIDTH 451 0
DWIDTH 6 0
BBX 4 1 1 6
BITMAP
F0
ENDCHAR

STARTCHAR degree
ENCODING 176
SWIDTH 400 0
DWIDTH 4 0
BBX 4 3 0 4
BITMAP
60
90
60
ENDCHAR

STARTCHAR plusminus
ENCODING 177
SWIDTH 620 0
DWIDTH 6 0
BBX 5 5 0 0
BITMAP
20
F8
20
00
F8
ENDCHAR

STARTCHAR twosuperior
ENCODING 178
SWIDTH 667 0
DWIDTH 4 0
BBX 4 4 0 3
BITMAP
60
B0
60
F0
ENDCHAR

STARTCHAR threesuperior
ENCODING 179
SWIDTH 667 0
DWIDTH 4 0
BBX 4 4 0 3
BITMAP
F0
60
30
E0
ENDCHAR

STARTCHAR acute
ENCODING 180
SWIDTH 393 0
DWIDTH 4 0
BBX 2 2 1 6
BITMAP
40
80
ENDCHAR

STARTCHAR mu
ENCODING 181
SWIDTH 660 0
DWIDTH 7 0
BBX 7 8 0 -3
BITMAP
FC
6C
6C
6C
7E
60
60
60
ENDCHAR

STARTCHAR paragraph
ENCODING 182
SWIDTH 791 0
DWIDTH 9 0
BBX 7 9 1 -2
BITMAP
7E
F4
F4
F4
74
14
14
3E
00
ENDCHAR

STARTCHAR periodcentered
ENCODING 183
SWIDTH 346 0
DWIDTH 4 0
BBX 2 2 1 2
BITMAP
C0
C0
ENDCHAR

STARTCHAR cedilla
ENCODING 184
SWIDTH 352 0
DWIDTH 6 0
BBX 4 3 1 -3
BITMAP
20
90
60
ENDCHAR

STARTCHAR onesuperior
ENCODING 185
SWIDTH 667 0
DWIDTH 4 0
BBX 4 4 0 3
BITMAP
E0
60
60
F0
ENDCHAR

STARTCHAR ordmasculine
ENCODING 186
SWIDTH 400 0
DWIDTH 6 0
BBX 4 5 1 2
BITMAP
60
B0
60
00
F0
ENDCHAR

STARTCHAR guillemotright
ENCODING 187
SWIDTH 394 0
DWIDTH 7 0
BBX 6 4 0 0
BITMAP
D8
6C
6C
D8
ENDCHAR

STARTCHAR onequarter
ENCODING 188
SWIDTH 111 0
DWIDTH 10 0
BBX 9 7 0 0
BITMAP
E200
6400
6400
FB00
1500
1F80
2300
ENDCHAR

STARTCHAR onehalf
ENCODING 189
SWIDTH 111 0
DWIDTH 10 0
BBX 9 7 0 0
BITMAP
E200
6400
6400
FB00
1580
1300
2780
ENDCHAR

STARTCHAR threequarters
ENCODING 190
SWIDTH 111 0
DWIDTH 10 0
BBX 9 7 0 0
BITMAP
F200
6400
3400
EB00
1500
1F80
2300
ENDCHAR

STARTCHAR questiondown
ENCODING 191
SWIDTH 669 0
DWIDTH 8 0
BBX 6 8 1 -3
BITMAP
30
30
00
30
60
C0
CC
78
ENDCHAR

STARTCHAR Agrave
ENCODING 192
SWIDTH 729 0
DWIDTH 7 0
BBX 8 8 -1 0
BITMAP
10
08
00
18
2C
3C
46
E7
ENDCHAR

STARTCHAR Aacute
ENCODING 193
SWIDTH 729 0
DWIDTH 7 0
BBX 8 8 -1 0
BITMAP
08
10
00
18
2C
3C
46
E7
ENDCHAR

STARTCHAR Acircumflex
ENCODING 194
SWIDTH 729 0
DWIDTH 7 0
BBX 8 8 -1 0
BITMAP
18
34
00
18
2C
3C
46
E7
ENDCHAR

STARTCHAR Atilde
ENCODING 195
SWIDTH 729 0
DWIDTH 7 0
BBX 8 8 -1 0
BITMAP
34
58
00
18
2C
3C
46
E7
ENDCHAR

STARTCHAR Adieresis
ENCODING 196
SWIDTH 729 0
DWIDTH 7 0
BBX 8 8 -1 0
BITMAP
28
28
00
18
2C
3C
46
E7
ENDCHAR

STARTCHAR Aring
ENCODING 197
SWIDTH 729 0
DWIDTH 7 0
BBX 8 8 -1 0
BITMAP
18
34
18
18
2C
3C
46
E7
ENDCHAR

STARTCHAR AE
ENCODING 198
SWIDTH 1149 0
DWIDTH 12 0
BBX 12 7 -1 0
BITMAP
07E0
0F30
1B40
1FC0
3340
6330
F7E0
ENDCHAR

STARTCHAR Ccedilla
ENCODING 199
SWIDTH 731 0
DWIDTH 8 0
BBX 7 10 0 -3
BITMAP
7C
C6
C0
C0
C0
C6
7C
10
48
30
ENDCHAR

STARTCHAR Egrave
ENCODING 200
SWIDTH 724 0
DWIDTH 7 0
BBX 7 8 0 0
BITMAP
20
10
00
FC
66
70
66
FC
ENDCHAR

STARTCHAR Eacute
ENCODING 201
SWIDTH 724 0
DWIDTH 7 0
BBX 7 8 0 0
BITMAP
10
20
00
FC
66
70
66
FC
ENDCHAR

STARTCHAR Ecircumflex
ENCODING 202
SWIDTH 724 0
DWIDTH 7 0
BBX 7 8 0 0
BITMAP
30
68
00
FC
66
70
66
FC
ENDCHAR

STARTCHAR Edieresis
ENCODING 203
SWIDTH 724 0
DWIDTH 7 0
BBX 7 8 0 0
BITMAP
28
28
00
FC
66
70
66
FC
ENDCHAR

STARTCHAR Igrave
ENCODING 204
SWIDTH 399 0
DWIDTH 4 0
BBX 4 8 0 0
BITMAP
40
20
00
F0
60
60
60
F0
ENDCHAR

STARTCHAR Iacute
ENCODING 205
SWIDTH 399 0
DWIDTH 4 0
BBX 4 8 0 0
BITMAP
20
40
00
F0
60
60
60
F0
ENDCHAR

STARTCHAR Icircumflex
ENCODING 206
SWIDTH 399 0
DWIDTH 4 0
BBX 4 8 0 0
BITMAP
60
D0
00
F0
60
60
60
F0
ENDCHAR

STARTCHAR Idieresis
ENCODING 207
SWIDTH 399 0
DWIDTH 4 0
BBX 4 8 0 0
BITMAP
A0
A0
00
F0
60
60
60
F0
ENDCHAR

STARTCHAR Eth
ENCODING 208
SWIDTH 782 0
DWIDTH 9 0
BBX 8 7 0 0
BITMAP
FC
67
63
F3
63
67
FC
ENDCHAR

STARTCHAR Ntilde
ENCODING 209
SWIDTH 745 0
DWIDTH 8 0
BBX 8 8 0 0
BITMAP
34
58
00
E7
72
5A
4E
E6
ENDCHAR

STARTCHAR Ograve
ENCODING 210
SWIDTH 803 0
DWIDTH 8 0
BBX 7 8 0 0
BITMAP
20
10
00
7C
C6
C6
C6
7C
ENDCHAR

STARTCHAR Oacute
ENCODING 211
SWIDTH 803 0
DWIDTH 8 0
BBX 7 8 0 0
BITMAP
08
10
00
7C
C6
C6
C6
7C
ENDCHAR

STARTCHAR Ocircumflex
ENCODING 212
SWIDTH 803 0
DWIDTH 8 0
BBX 7 8 0 0
BITMAP
30
68
00
7C
C6
C6
C6
7C
ENDCHAR

STARTCHAR Otilde
ENCODING 213
SWIDTH 803 0
DWIDTH 8 0
BBX 7 8 0 0
BITMAP
34
58
00
7C
C6
C6
C6
7C
ENDCHAR

STARTCHAR Odieresis
ENCODING 214
SWIDTH 803 0
DWIDTH 8 0
BBX 7 8 0 0
BITMAP
28
28
00
7C
C6
C6
C6
7C
ENDCHAR

STARTCHAR multiply
ENCODING 215
SWIDTH 620 0
DWIDTH 6 0
BBX 6 5 0 0
BITMAP
CC
78
30
78
CC
ENDCHAR

STARTCHAR Oslash
ENCODING 216
SWIDTH 804 0
DWIDTH 8 0
BBX 8 8 -1 0
BITMAP
01
3E
63
67
6B
73
63
BE
ENDCHAR

STARTCHAR Ugrave
ENCODING 217
SWIDTH 737 0
DWIDTH 8 0
BBX 8 8 0 0
BITMAP
10
08
00
E7
66
66
66
3C
ENDCHAR

STARTCHAR Uacute
ENCODING 218
SWIDTH 737 0
DWIDTH 8 0
BBX 8 8 0 0
BITMAP
08
10
00
E7
66
66
66
3C
ENDCHAR

STARTCHAR Ucircumflex
ENCODING 219
SWIDTH 737 0
DWIDTH 8 0
BBX 8 8 0 0
BITMAP
18
34
00
E7
66
66
66
3C
ENDCHAR

STARTCHAR Udieresis
ENCODING 220
SWIDTH 737 0
DWIDTH 8 0
BBX 8 8 0 0
BITMAP
28
28
00
E7
66
66
66
3C
ENDCHAR

STARTCHAR Yacute
ENCODING 221
SWIDTH 683 0
DWIDTH 7 0
BBX 8 8 -1 0
BITMAP
08
10
00
E7
66
3C
18
3C
ENDCHAR

STARTCHAR Thorn
ENCODING 222
SWIDTH 659 0
DWIDTH 7 0
BBX 7 7 0 0
BITMAP
F0
60
7C
66
7C
60
F0
ENDCHAR

STARTCHAR germandbls
ENCODING 223
SWIDTH 652 0
DWIDTH 8 0
BBX 8 8 -1 -1
BITMAP
1E
33
76
36
33
33
36
E0
ENDCHAR

STARTCHAR agrave
ENCODING 224
SWIDTH 581 0
DWIDTH 6 0
BBX 6 8 0 0
BITMAP
20
10
00
70
D8
78
D8
7C
ENDCHAR

STARTCHAR aacute
ENCODING 225
SWIDTH 581 0
DWIDTH 6 0
BBX 6 8 0 0
BITMAP
10
20
00
70
D8
78
D8
7C
ENDCHAR

STARTCHAR acircumflex
ENCODING 226
SWIDTH 581 0
DWIDTH 6 0
BBX 6 8 0 0
BITMAP
30
68
00
70
D8
78
D8
7C
ENDCHAR

STARTCHAR atilde
ENCODING 227
SWIDTH 581 0
DWIDTH 6 0
BBX 6 8 0 0
BITMAP
68
B0
00
70
D8
78
D8
7C
ENDCHAR

STARTCHAR adieresis
ENCODING 228
SWIDTH 581 0
DWIDTH 6 0
BBX 6 8 0 0
BITMAP
50
50
00
70
D8
78
D8
7C
ENDCHAR

STARTCHAR aring
ENCODING 229
SWIDTH 581 0
DWIDTH 6 0
BBX 6 8 0 0
BITMAP
30
68
30
70
D8
78
D8
7C
ENDCHAR

STARTCHAR ae
ENCODING 230
SWIDTH 873 0
DWIDTH 9 0
BBX 8 5 0 0
BITMAP
7E
DB
7F
D8
7F
ENDCHAR

STARTCHAR ccedilla
ENCODING 231
SWIDTH 570 0
DWIDTH 6 0
BBX 5 8 0 -3
BITMAP
70
D8
C0
D8
70
20
90
60
ENDCHAR

STARTCHAR egrave
ENCODING 232
SWIDTH 568 0
DWIDTH 6 0
BBX 5 8 0 0
BITMAP
40
20
00
70
D8
F8
C0
78
ENDCHAR

STARTCHAR eacute
ENCODING 233
SWIDTH 568 0
DWIDTH 6 0
BBX 5 8 0 0
BITMAP
20
40
00
70
D8
F8
C0
78
ENDCHAR

STARTCHAR ecircumflex
ENCODING 234
SWIDTH 568 0
DWIDTH 6 0
BBX 5 8 0 0
BITMAP
60
D0
00
70
D8
F8
C0
78
ENDCHAR

STARTCHAR edieresis
ENCODING 235
SWIDTH 568 0
DWIDTH 6 0
BBX 5 8 0 0
BITMAP
50
50
00
70
D8
F8
C0
78
ENDCHAR

STARTCHAR igrave
ENCODING 236
SWIDTH 355 0
DWIDTH 4 0
BBX 4 8 0 0
BITMAP
40
20
00
E0
60
60
60
F0
ENDCHAR

STARTCHAR iacute
ENCODING 237
SWIDTH 355 0
DWIDTH 4 0
BBX 4 8 0 0
BITMAP
20
40
00
E0
60
60
60
F0
ENDCHAR

STARTCHAR icircumflex
ENCODING 238
SWIDTH 355 0
DWIDTH 4 0
BBX 4 8 0 0
BITMAP
60
D0
00
E0
60
60
60
F0
ENDCHAR

STARTCHAR idieresis
ENCODING 239
SWIDTH 355 0
DWIDTH 4 0
BBX 4 8 0 0
BITMAP
A0
A0
00
E0
60
60
60
F0
ENDCHAR

STARTCHAR eth
ENCODING 240
SWIDTH 616 0
DWIDTH 6 0
BBX 6 8 0 0
BITMAP
50
60
90
78
CC
CC
CC
78
ENDCHAR

STARTCHAR ntilde
ENCODING 241
SWIDTH 672 0
DWIDTH 7 0
BBX 7 8 0 0
BITMAP
34
58
00
F8
6C
6C
6C
EE
ENDCHAR

STARTCHAR ograve
ENCODING 242
SWIDTH 616 0
DWIDTH 6 0
BBX 6 8 0 0
BITMAP
20
10
00
78
CC
CC
CC
78
ENDCHAR

STARTCHAR oacute
ENCODING 243
SWIDTH 616 0
DWIDTH 6 0
BBX 6 8 0 0
BITMAP
10
20
00
78
CC
CC
CC
78
ENDCHAR

STARTCHAR ocircumflex
ENCODING 244
SWIDTH 616 0
DWIDTH 6 0
BBX 6 8 0 0
BITMAP
30
68
00
78
CC
CC
CC
78
ENDCHAR

STARTCHAR otilde
ENCODING 245
SWIDTH 616 0
DWIDTH 6 0
BBX 6 8 0 0
BITMAP
34
58
00
78
CC
CC
CC
78
ENDCHAR

STARTCHAR odieresis
ENCODING 246
SWIDTH 616 0
DWIDTH 6 0
BBX 6 8 0 0
BITMAP
50
50
00
78
CC
CC
CC
78
ENDCHAR

STARTCHAR divide
ENCODING 247
SWIDTH 620 0
DWIDTH 6 0
BBX 5 5 0 0
BITMAP
20
00
F8
00
20
ENDCHAR

STARTCHAR oslash
ENCODING 248
SWIDTH 617 0
DWIDTH 6 0
BBX 7 6 -1 0
BITMAP
02
3C
6E
76
66
BC
ENDCHAR

STARTCHAR ugrave
ENCODING 249
SWIDTH 660 0
DWIDTH 7 0
BBX 7 8 0 0
BITMAP
20
10
00
FC
6C
6C
6C
3E
ENDCHAR

STARTCHAR uacute
ENCODING 250
SWIDTH 660 0
DWIDTH 7 0
BBX 7 8 0 0
BITMAP
10
20
00
FC
6C
6C
6C
3E
ENDCHAR

STARTCHAR ucircumflex
ENCODING 251
SWIDTH 660 0
DWIDTH 7 0
BBX 7 8 0 0
BITMAP
30
68
00
FC
6C
6C
6C
3E
ENDCHAR

STARTCHAR udieresis
ENCODING 252
SWIDTH 660 0
DWIDTH 7 0
BBX 7 8 0 0
BITMAP
28
28
00
FC
6C
6C
6C
3E
ENDCHAR

STARTCHAR yacute
ENCODING 253
SWIDTH 607 0
DWIDTH 6 0
BBX 7 11 -1 -3
BITMAP
08
10
00
EE
6C
68
38
30
30
B0
E0
ENDCHAR

STARTCHAR thorn
ENCODING 254
SWIDTH 639 0
DWIDTH 6 0
BBX 7 10 -1 -3
BITMAP
E0
60
6C
76
66
66
7C
60
60
F0
ENDCHAR

STARTCHAR ydieresis
ENCODING 255
SWIDTH 607 0
DWIDTH 6 0
BBX 7 11 -1 -3
BITMAP
28
28
00
EE
6C
68
38
30
30
B0
E0
ENDCHAR
ENDFONT
